<svg width="288" height="112" viewBox="0 0 288 112" fill="none" xmlns="http://www.w3.org/2000/svg">
<path d="M75.4956 97.046C96.2637 85.0029 103.365 58.342 91.3876 37.5058C79.4104 16.6696 52.8719 9.51586 32.1037 21.559C11.3355 33.6022 4.23454 60.263 16.2117 81.0992C28.1889 101.935 54.7274 109.089 75.4956 97.046Z" fill="#FFE6A3" stroke="#FFD324" stroke-width="10"/>
<path d="M41.3 58.8525C40.2667 54.9794 40.4001 50.8855 41.6834 47.0885C42.9667 43.2915 45.3421 39.962 48.5094 37.5211C51.6766 35.0801 55.4934 33.6372 59.4771 33.375C63.4608 33.1127 67.4325 34.0428 70.8898 36.0477C74.3472 38.0526 77.135 41.0422 78.9007 44.6385C80.6665 48.2347 81.3308 52.2761 80.8097 56.2516C80.2886 60.227 78.6055 63.958 75.9732 66.9727C73.341 69.9874 69.8778 72.1504 66.0216 73.1882C60.8508 74.5737 55.344 73.8424 50.7094 71.1548C46.0747 68.4673 42.6908 64.043 41.3 58.8525ZM78.4766 48.8473C77.5397 45.3354 75.5869 42.1813 72.8653 39.784C70.1436 37.3867 66.7753 35.8538 63.1863 35.3792C59.5973 34.9047 55.9488 35.5097 52.7021 37.1178C49.4554 38.7259 46.7565 41.2649 44.9465 44.4136C43.1365 47.5624 42.2968 51.1795 42.5335 54.8076C42.7703 58.4357 44.0729 61.9118 46.2766 64.7964C48.4803 67.6809 51.4861 69.8443 54.914 71.013C58.3419 72.1817 62.0378 72.3033 65.5344 71.3622C70.2193 70.094 74.2125 67.0119 76.6385 62.7914C79.0645 58.5709 79.7255 53.5565 78.4766 48.8473Z" fill="#27120A"/>
<path d="M86.029 49.0939C85.6348 48.4515 85.0625 47.9384 84.3823 47.6178L84.5181 47.4152C84.6607 47.1966 84.7886 46.9687 84.901 46.7329L85.0245 46.4518C85.0904 46.2905 85.1562 46.1334 85.2139 45.968L85.2921 45.7033L85.2921 45.662C85.3333 45.509 85.3744 45.356 85.4032 45.2113C85.4321 45.0666 85.4444 45.0046 85.465 44.8681C85.4856 44.7317 85.5062 44.5828 85.5185 44.4339C85.5309 44.2851 85.5185 44.1983 85.5391 44.0866L85.5391 43.6731L85.5391 43.3258C85.5391 43.1935 85.5391 43.0612 85.5103 42.9371C85.4815 42.8131 85.4815 42.689 85.4609 42.5732C85.4403 42.4575 85.4238 42.3293 85.3991 42.2052L85.3209 41.8331L85.2386 41.5106L85.1274 41.0971L85.0286 40.7953L84.8928 40.4107L84.8063 40.1874L84.6169 39.7367L84.6169 39.6995C82.5585 35.0271 77.6554 30.7516 77.4496 30.5738C76.7456 29.9619 70.4058 24.6279 64.4241 25.2523C63.9821 25.2975 63.5443 25.3777 63.1149 25.4921C62.1639 25.7443 60.896 26.6374 59.5704 27.973C59.1911 27.5645 58.7174 27.2563 58.1912 27.0757C55.9831 26.29 53.6348 25.9815 51.2997 26.1702C49.6111 26.3213 47.9846 26.8838 46.5613 27.809C45.1381 28.7342 43.9609 29.994 43.132 31.4794L42.9303 31.8433C42.5233 31.6898 42.0868 31.6318 41.6541 31.6737C41.3812 31.704 41.1138 31.7722 40.8595 31.8763C30.6952 36.0732 30.0612 44.5456 30.5882 49.2221C30.6376 49.6356 30.6911 50.0491 30.7569 50.4088L30.8475 50.9216L30.8475 50.9712L30.9545 51.488C31.1434 52.3327 31.634 53.0786 32.3335 53.5845C33.0329 54.0905 33.8927 54.3214 34.7502 54.2336C35.5899 54.1411 36.3693 53.7512 36.9486 53.1337C38.1715 51.8592 39.7794 51.0263 41.5224 50.7644C42.1619 50.6606 42.7581 50.3734 43.2391 49.9375C43.9848 50.2532 44.7957 50.3823 45.6021 50.3137C47.6801 50.169 49.7666 50.4187 51.7526 51.0497C52.2496 51.2035 52.7759 51.2368 53.2882 51.1469C53.8005 51.0571 54.2844 50.8467 54.7002 50.5329L54.7578 50.6321C54.7774 50.6694 54.7994 50.7053 54.8237 50.7396C54.9184 50.8926 55.0172 51.0415 55.1201 51.1945L55.1942 51.302C55.293 51.4426 55.3959 51.5831 55.5112 51.7155L55.5935 51.8312C55.6965 51.9635 55.8035 52.0917 55.9394 52.2447L56.034 52.3605L56.3881 52.774C56.4251 52.8153 56.4663 52.8567 56.4992 52.898L56.8615 53.266L57.0056 53.4108L57.3267 53.7126L57.5408 53.9111C57.726 54.0723 57.9154 54.2336 58.1089 54.3907C58.3024 54.5478 58.4918 54.6967 58.6811 54.8414C59.2319 55.2624 59.805 55.653 60.3978 56.0116C60.5872 56.1274 60.7807 56.2349 60.9701 56.3424C61.3488 56.5533 61.7358 56.7559 62.1228 56.9213C62.3163 57.0081 62.5056 57.0908 62.695 57.1694C63.0532 57.3141 63.4196 57.4464 63.786 57.5828C63.6157 58.0334 63.5456 58.516 63.5804 58.9966C63.6153 59.4773 63.7543 59.9445 63.9877 60.3656C64.1935 60.7377 64.3994 61.1264 64.5846 61.5523L64.6217 61.635C64.6958 61.7921 64.7658 61.9534 64.8399 62.1312L64.9263 62.3462C64.9881 62.4909 65.0457 62.6439 65.1033 62.7969L65.1857 63.0202C65.268 63.2435 65.3462 63.475 65.408 63.6859L65.4327 63.7645C65.4985 63.9836 65.5644 64.211 65.622 64.4385L65.6756 64.67C65.7209 64.8519 65.762 65.0421 65.7991 65.2324L65.8444 65.4639C65.8938 65.7244 65.939 65.989 65.972 66.2578C66.0823 67.1223 66.4174 67.9423 66.9435 68.6354C66.5679 69.225 66.3825 69.9166 66.4125 70.616C66.4125 70.802 66.4125 71.0294 66.4125 71.2197C66.4039 71.5585 66.3778 71.8966 66.3343 72.2327C66.3137 72.3857 66.2849 72.5469 66.256 72.7041L66.256 72.7785C66.2231 72.9398 66.1861 73.1093 66.1325 73.2912L66.1325 73.3367C66.0872 73.5021 66.0337 73.6716 65.9761 73.8288L65.9761 73.8866C65.9143 74.052 65.8444 74.2174 65.7703 74.387L65.7291 74.4821C65.6509 74.6516 65.5644 74.8211 65.4615 75.0072L65.4203 75.0734C65.3009 75.2842 65.198 75.4496 65.091 75.6026C64.6357 76.2573 64.4151 77.0477 64.4652 77.8446C64.5153 78.6415 64.8332 79.3978 65.3668 79.9897C65.5745 80.2223 65.8127 80.4254 66.0749 80.5934C66.632 80.9518 67.2783 81.1453 67.9398 81.1516C68.1333 81.1516 68.3515 81.1516 68.5409 81.1516L68.7096 81.1516C68.8949 81.1516 69.0802 81.1516 69.3025 81.1516L69.3848 81.1516C69.6153 81.1516 69.8541 81.1227 70.097 81.0979L70.3893 81.0689C70.5457 81.0689 70.7063 81.0358 70.8668 81.0152L70.9739 81.0152C71.5214 80.9407 72.0731 80.8456 72.6206 80.7216L72.1636 78.6831L72.6618 80.7133C76.2887 79.8863 79.2239 78.1704 81.3935 75.553C83.2733 73.1976 84.5117 70.3921 84.9874 67.4114C85.0592 67.0303 85.0524 66.6385 84.9674 66.2601C84.8825 65.8818 84.7211 65.5249 84.4934 65.2117C84.6252 65.0959 84.7569 64.9884 84.9051 64.8685C85.0533 64.7486 85.2427 64.546 85.4156 64.3723L85.5597 64.2193L85.8602 63.8885L86.0002 63.7231L86.0372 63.6776L86.2883 63.3675L86.4489 63.1525L86.663 62.8507L86.8153 62.6232L87.0129 62.3049L87.1446 62.0774L87.3093 61.7715C87.3093 61.7715 87.3999 61.6019 87.4328 61.5275C87.4658 61.4531 87.5316 61.3166 87.5851 61.2009L87.6057 61.1554L87.6798 60.9817C87.7539 60.808 87.8198 60.6302 87.8857 60.4524L87.9515 60.2416L87.9845 60.1423L88.0545 59.9149L88.1244 59.6503L88.1244 59.58L88.1821 59.3526L88.2438 59.059L88.285 58.8192C88.285 58.7158 88.322 58.6124 88.3344 58.5008L88.3632 58.2775L88.4003 57.9632L88.4003 57.7606L88.4003 57.4092L88.4003 57.2686C88.4785 53.9566 87.1529 51.0001 86.029 49.0939Z" fill="#4D2211"/>
<path d="M58.2983 29.7177C56.6145 32.6121 53.0041 39.6993 54.0374 46.3771C54.0774 46.5889 54.0617 46.8076 53.9919 47.0115C53.922 47.2154 53.8005 47.3975 53.6393 47.5398C53.478 47.6822 53.2826 47.7798 53.0723 47.8232C52.862 47.8665 52.6441 47.8541 52.4401 47.7871C50.2015 47.0761 47.8495 46.7956 45.5074 46.9601C44.7876 47.0236 44.0703 46.8132 43.4976 46.3705C42.925 45.9279 42.5389 45.2853 42.4157 44.5701C41.8887 41.6468 41.7899 36.7139 44.9887 31.2641C48.3768 25.4753 54.7002 26.7902 57.5984 27.7826C57.7843 27.8467 57.9535 27.9518 58.0937 28.0902C58.2339 28.2285 58.3415 28.3966 58.4086 28.5822C58.4757 28.7677 58.5007 28.966 58.4816 29.1625C58.4625 29.359 58.3998 29.5487 58.2983 29.7177Z" fill="#DE9F2D"/>
<path opacity="0.5" d="M56.4541 33.2904L56.38 33.2408C56.0177 33.0547 55.7007 33.5757 55.5237 33.8652C54.8691 34.9278 54.7827 36.2469 54.1446 37.3137C53.7864 37.9132 53.2389 38.3639 52.8437 38.9345C52.3661 39.6375 52.2673 40.4892 52.0985 41.3038C51.8721 42.4037 51.5263 43.4209 50.6165 44.1362C49.155 45.2857 46.6026 45.5172 44.9106 44.806C42.5064 43.7971 42.2841 41.0144 42.3747 38.459C42.0456 40.4867 42.0595 42.5556 42.4158 44.5786C42.539 45.2938 42.9252 45.9363 43.4978 46.379C44.0704 46.8216 44.7877 47.0321 45.5075 46.9686C47.8496 46.8041 50.2016 47.0846 52.4402 47.7956C52.6443 47.8626 52.8622 47.875 53.0725 47.8317C53.2828 47.7883 53.4782 47.6906 53.6394 47.5483C53.8007 47.406 53.9222 47.2239 53.992 47.02C54.0618 46.8161 54.0775 46.5974 54.0375 46.3856C53.313 41.6883 54.8774 36.7968 56.4541 33.2904Z" fill="#FFD324"/>
<path d="M41.7157 32.5421C41.8587 32.485 42.015 32.4709 42.1658 32.5014C42.3166 32.5319 42.4553 32.6057 42.5652 32.7138C42.675 32.822 42.7512 32.9598 42.7846 33.1106C42.818 33.2614 42.807 33.4187 42.7532 33.5634C41.7445 36.2056 40.2419 41.5147 42.2509 45.8977C42.5555 46.5634 41.9915 47.3325 41.2711 47.4483C39.0734 47.7848 37.0476 48.8399 35.5076 50.4502C35.3296 50.6472 35.1009 50.7909 34.8467 50.8655C34.5924 50.9401 34.3226 50.9426 34.0671 50.8729C33.8115 50.8032 33.5801 50.6638 33.3984 50.4703C33.2167 50.2768 33.0918 50.0366 33.0375 49.7762C32.0783 45.3602 31.7737 36.648 41.7157 32.5421Z" fill="#DE9F2D"/>
<path opacity="0.5" d="M41.4194 38.583C41.0901 38.5376 41.0078 38.7691 40.8513 39.2033C40.6676 39.7291 40.5527 40.2768 40.5096 40.8324C40.382 41.9695 40.452 43.1314 40.2132 44.2478C39.8015 46.2408 37.7431 47.9692 35.8494 48.5398C34.4291 48.9533 33.3011 48.6887 32.7001 47.7128C32.7758 48.4078 32.8898 49.098 33.0418 49.7803C33.0961 50.0406 33.221 50.2808 33.4027 50.4744C33.5843 50.6679 33.8157 50.8072 34.0713 50.8769C34.3269 50.9467 34.5967 50.9441 34.8509 50.8695C35.1051 50.7949 35.3338 50.6512 35.5118 50.4543C37.0518 48.844 39.0777 47.7888 41.2753 47.4523C41.9958 47.3366 42.5598 46.5675 42.2551 45.9018C41.1724 43.5407 41.1107 40.9316 41.4194 38.583Z" fill="#FFD324"/>
<path d="M82.8509 45.0168C86.3214 39.6911 76.1653 30.888 76.1653 30.888C76.1653 30.888 69.1667 24.8014 63.7202 26.2445C60.2868 27.1542 48.4881 42.5566 59.5005 51.521C70.5129 60.4854 80.2162 49.0649 82.8509 45.0168Z" fill="#DE9F2D"/>
<path opacity="0.5" d="M81.307 36.6559C81.3728 36.8007 81.4387 36.9495 81.4963 37.1025C82.7067 40.307 81.7392 43.7597 79.5985 46.3109C78.6887 47.4025 77.6183 48.3452 76.2227 48.7132C75.3253 48.9531 74.3825 48.92 73.4768 49.1267C72.4641 49.4054 71.4944 49.8228 70.5951 50.3672C67.5733 51.955 63.5595 52.2651 60.5542 50.4457C59.3462 49.6892 58.3468 48.6399 57.6478 47.3942C57.2491 46.6789 56.9157 45.9288 56.6515 45.1531C56.5156 44.7727 56.2069 43.8382 55.754 43.7183L55.0089 43.8713C55.3876 46.6086 56.7133 49.2466 59.4797 51.5208C70.4839 60.4894 80.1954 49.0647 82.8302 45.0167C84.4481 42.5854 83.1595 39.3808 81.307 36.6559Z" fill="#FFD324"/>
<path d="M82.1386 48.3742C79.6192 51.2687 73.6539 55.8625 66.9436 56.2305C66.7291 56.2344 66.5192 56.2943 66.3348 56.4043C66.1503 56.5144 65.9976 56.6708 65.8917 56.8582C65.7857 57.0455 65.7302 57.2574 65.7306 57.4729C65.7309 57.6884 65.7872 57.9001 65.8938 58.0871C67.048 60.142 67.8037 62.3982 68.121 64.7359C68.2082 65.4564 68.5617 66.1176 69.1115 66.5886C69.6612 67.0596 70.3671 67.306 71.0892 67.2789C74.045 67.1921 78.8617 66.2782 83.5219 62.0069C88.462 57.4875 85.8808 51.5416 84.3164 48.8994C83.8842 48.1716 82.6862 47.7168 82.1386 48.3742Z" fill="#DE9F2D"/>
<path opacity="0.5" d="M85.1068 58.5335C84.4852 59.6747 83.6907 60.8325 82.5544 61.5065C81.5046 62.1308 80.3725 62.0854 79.1992 62.0812C78.7403 62.0581 78.2818 62.1352 77.8553 62.3072C77.4289 62.4793 77.0447 62.7421 76.7292 63.0777C76.2794 63.525 75.7903 63.9305 75.2677 64.2892C74.2797 64.9508 73.0981 65.5297 71.8837 65.4884C69.9323 65.4387 69.3436 63.6938 68.6232 62.1805C68.2853 61.3241 67.8248 60.5217 67.2564 59.7988C67.0746 59.5814 66.8225 59.435 66.5442 59.3853C67.346 61.0834 67.8781 62.8971 68.1209 64.7606C68.2082 65.4811 68.5617 66.1423 69.1115 66.6133C69.6612 67.0843 70.3671 67.3306 71.0892 67.3036C74.045 67.2167 78.8617 66.3029 83.5219 62.0316C84.4402 61.2396 85.1742 60.2547 85.6722 59.1466C86.1701 58.0385 86.4198 56.8341 86.4036 55.6184C86.064 56.629 85.6298 57.6051 85.1068 58.5335Z" fill="#FFD324"/>
<path d="M82.9701 65.7161C83.0008 65.5622 82.9857 65.4027 82.9266 65.2575C82.8675 65.1123 82.7671 64.9877 82.638 64.8995C82.5088 64.8112 82.3566 64.7632 82.2004 64.7613C82.0442 64.7595 81.891 64.8039 81.7598 64.8891C79.3967 66.4273 74.5389 69.024 69.8499 67.9406C69.1377 67.7794 68.5078 68.4947 68.5408 69.2224C68.6692 71.4496 68.0629 73.6572 66.8158 75.5033C66.6645 75.7181 66.5747 75.9704 66.5563 76.2329C66.5378 76.4953 66.5913 76.7579 66.711 76.9919C66.8307 77.2259 67.0119 77.4225 67.2351 77.5603C67.4583 77.6981 67.7148 77.7718 67.9768 77.7733C72.4805 77.8436 81.0352 76.3344 82.9701 65.7161Z" fill="#DE9F2D"/>
<path opacity="0.5" d="M75.8648 75.3379C74.3498 75.8796 71.4598 76.4709 70.3483 74.8624C69.7143 73.9486 69.879 72.6875 69.7967 71.6413C69.7308 70.8681 69.5291 69.76 68.5616 69.9874C68.5369 71.9617 67.9325 73.8848 66.8243 75.5157C66.673 75.7305 66.5832 75.9828 66.5648 76.2453C66.5463 76.5077 66.5998 76.7703 66.7195 77.0043C66.8392 77.2383 67.0205 77.4349 67.2436 77.5727C67.4668 77.7105 67.7233 77.7842 67.9853 77.7858C71.1676 77.823 76.3671 77.0746 79.8293 72.8942C78.6698 73.9482 77.3255 74.7768 75.8648 75.3379Z" fill="#FFD324"/>
<g style="mix-blend-mode:overlay" opacity="0.2">
<path d="M80.1173 37.9547C80.0587 37.6605 79.927 37.3859 79.7344 37.1566C77.676 34.5765 75.1854 31.6655 72.3571 29.9123C70.1629 28.552 66.289 27.4314 63.8436 28.4651C58.2983 30.8179 55.0831 41.0558 57.8166 46.3071C60.6366 51.7279 69.6318 50.5702 73.9009 47.8411C76.124 46.4187 79.2528 43.942 80.2984 41.4114C80.534 40.8598 80.6402 40.2612 80.6088 39.6618C80.5774 39.0625 80.4092 38.4784 80.1173 37.9547Z" fill="#FCEE21"/>
</g>
<g style="mix-blend-mode:overlay" opacity="0.2">
<path d="M83.8677 50.2891C83.8438 50.1986 83.8024 50.1137 83.7457 50.0394C83.6891 49.965 83.6184 49.9026 83.5377 49.8557C83.457 49.8088 83.3679 49.7784 83.2754 49.7662C83.183 49.7541 83.0891 49.7603 82.999 49.7847C82.8657 49.7643 82.7293 49.7846 82.6075 49.8428C82.4857 49.901 82.384 49.9945 82.3157 50.1113C81.0436 51.9803 78.767 53.4192 76.8321 54.5398C75.7011 55.1871 74.5098 55.7216 73.2752 56.1358C72.2007 56.4956 70.8257 56.5948 69.85 57.1778C67.31 58.7036 69.5166 62.9088 71.8055 63.3801C73.4152 63.7151 74.8684 62.9667 76.0376 61.9247C76.4245 61.5773 76.8033 60.5519 77.2273 60.2418C78.1577 59.5595 78.6847 60.4692 79.895 60.5436C80.4587 60.6221 81.033 60.527 81.5417 60.2707C85.0163 58.3356 84.8928 53.4895 83.8677 50.2891Z" fill="#FCEE21"/>
</g>
<g style="mix-blend-mode:overlay" opacity="0.2">
<path d="M80.0762 66.9813C79.9074 67.0805 79.7427 67.1922 79.5822 67.3079C78.1084 68.1721 76.4081 68.4698 74.7285 68.6683C73.6911 68.7882 72.4025 68.6683 71.6162 69.4953C70.5088 70.6613 70.9575 72.8032 72.1596 73.7418C73.6746 74.9161 75.6465 74.023 77.0298 73.0968C78.5983 72.0424 81.2824 69.8261 81.3895 67.7835C81.4089 67.6218 81.3816 67.4579 81.3108 67.3114C81.24 67.1649 81.1287 67.042 80.9901 66.9574C80.8516 66.8728 80.6918 66.83 80.5297 66.8343C80.3676 66.8385 80.2102 66.8895 80.0762 66.9813Z" fill="#FCEE21"/>
</g>
<g filter="url(#filter0_dd_1033_6139)">
<path d="M133.454 42.5686C133.167 42.2549 132.816 42.0981 132.4 42.0981H115.142C114.726 42.0981 114.374 42.2549 114.088 42.5686C113.802 42.8562 113.659 43.2222 113.659 43.6667V68.3331C113.659 68.7775 113.802 69.1566 114.088 69.4703C114.374 69.7579 114.726 69.9017 115.142 69.9017H117.914C118.877 69.9017 119.359 69.3788 119.359 68.3331V47.9804H128.183V68.3331C128.183 69.3788 128.664 69.9017 129.627 69.9017H132.4C132.816 69.9017 133.167 69.7579 133.454 69.4703C133.74 69.1566 133.883 68.7775 133.883 68.3331V43.6667C133.883 43.2222 133.74 42.8562 133.454 42.5686Z" fill="white"/>
<path d="M147.245 48.098V52.7254H153.218C153.635 52.7254 153.986 52.8692 154.273 53.1568C154.559 53.4705 154.702 53.8365 154.702 54.2548V56.8822C154.702 57.3005 154.559 57.6665 154.273 57.9803C153.986 58.2678 153.635 58.4116 153.218 58.4116H147.245V64.0586H155.522C155.939 64.0586 156.29 64.2155 156.576 64.5292C156.863 64.8168 157.006 65.1828 157.006 65.6272V68.3331C157.006 68.7775 156.863 69.1566 156.576 69.4703C156.29 69.7579 155.939 69.9017 155.522 69.9017H143.77C143.145 69.9017 142.612 69.6664 142.169 69.1958C141.753 68.7253 141.544 68.1762 141.544 67.5488V44.6078C141.544 43.9542 141.766 43.4052 142.208 42.9608C142.599 42.4902 143.119 42.2549 143.77 42.2549H155.522C155.939 42.2549 156.29 42.3987 156.576 42.6863C156.863 43 157.006 43.3791 157.006 43.8235V46.5294C157.006 46.9738 156.863 47.3398 156.576 47.6274C156.29 47.9411 155.939 48.098 155.522 48.098H147.245Z" fill="white"/>
<path d="M164.774 69.9017C164.358 69.9017 164.006 69.7579 163.72 69.4703C163.434 69.1566 163.291 68.7906 163.291 68.3723V43.8235C163.291 43.3791 163.434 43 163.72 42.6863C164.006 42.3987 164.358 42.2549 164.774 42.2549H167.507C167.924 42.2549 168.275 42.3987 168.561 42.6863C168.848 43 168.991 43.3791 168.991 43.8235V53.3136H169.03L176.722 43.0784C177.112 42.5294 177.659 42.2549 178.361 42.2549H181.485C182.448 42.2549 182.93 42.7386 182.93 43.7059C182.93 43.9935 182.825 44.3072 182.617 44.647L173.989 55.9411L182.656 67.588C182.865 67.8756 182.969 68.1762 182.969 68.49C182.969 69.4573 182.487 69.9409 181.524 69.9409L178.322 69.9017C177.646 69.9017 177.112 69.6272 176.722 69.0782L169.186 58.9999H168.991V68.3723C168.991 68.7906 168.848 69.1566 168.561 69.4703C168.275 69.7579 167.924 69.9017 167.507 69.9017H164.774Z" fill="white"/>
<path d="M210.336 67.7449C210.362 67.8494 210.375 68.0325 210.375 68.2939C210.375 68.7383 210.232 69.1174 209.945 69.4311C209.633 69.7449 209.255 69.9017 208.813 69.9017H206.353C205.416 69.9017 204.817 69.4311 204.557 68.49L203.191 63.8233H196.202L194.796 68.49C194.536 69.4311 193.95 69.9017 193.039 69.9017H190.618C190.176 69.9017 189.799 69.7449 189.486 69.4311C189.2 69.1174 189.057 68.7383 189.057 68.2939C189.057 68.0325 189.07 67.8494 189.096 67.7449L196.592 43.4314C196.853 42.5164 197.451 42.0588 198.388 42.0588H201.043C201.98 42.0588 202.579 42.5164 202.839 43.4314L210.336 67.7449ZM199.677 51.8235L197.842 58.1371H201.512L199.677 51.8235Z" fill="white"/>
<path d="M235.03 51.4313C235.03 53.9149 234.184 56.0587 232.492 57.8626C230.774 59.7188 228.692 60.6469 226.245 60.6469H223.551V68.3331C223.551 69.3788 223.069 69.9017 222.106 69.9017H219.334C218.371 69.9017 217.889 69.3788 217.889 68.3331V44.6078C217.889 43.9804 218.098 43.4314 218.514 42.9608C218.957 42.4902 219.49 42.2549 220.115 42.2549H226.245C228.666 42.2549 230.748 43.183 232.492 45.0392C234.184 46.8431 235.03 48.9738 235.03 51.4313ZM229.329 51.4313C229.329 50.4901 229.004 49.6928 228.353 49.0392C227.754 48.3594 226.987 48.0196 226.05 48.0196H223.551V54.8822H226.05C226.935 54.8822 227.702 54.5424 228.353 53.8626C229.004 53.1829 229.329 52.3725 229.329 51.4313Z" fill="white"/>
<path d="M260.222 42.0981C260.639 42.0981 260.99 42.2549 261.277 42.5686C261.563 42.8562 261.706 43.2222 261.706 43.6667V68.3331C261.706 68.7775 261.563 69.1566 261.277 69.4703C260.99 69.7579 260.639 69.9017 260.222 69.9017H257.45C256.487 69.9017 256.006 69.3788 256.006 68.3331V58.5685H247.182V68.3331C247.182 69.3788 246.7 69.9017 245.737 69.9017H242.965C242.549 69.9017 242.197 69.7579 241.911 69.4703C241.624 69.1566 241.481 68.7775 241.481 68.3331V43.6667C241.481 43.2222 241.624 42.8562 241.911 42.5686C242.197 42.2549 242.549 42.0981 242.965 42.0981H245.737C246.154 42.0981 246.492 42.2549 246.752 42.5686C247.039 42.8562 247.182 43.2222 247.182 43.6667V52.7646H256.006V43.6667C256.006 43.2222 256.149 42.8562 256.435 42.5686C256.695 42.2549 257.034 42.0981 257.45 42.0981H260.222Z" fill="white"/>
<path d="M274.638 50.9999C274.638 50.1372 274.898 49.4182 275.419 48.8431C275.966 48.2941 276.668 48.0196 277.527 48.0196H280.299V53.9019H277.527C276.694 53.9019 276.005 53.6274 275.458 53.0783C274.911 52.5293 274.638 51.8365 274.638 50.9999ZM268.391 68.3331C268.391 68.7775 268.534 69.1566 268.821 69.4703C269.107 69.7579 269.471 69.9017 269.914 69.9017H272.725C273.376 69.9017 273.883 69.6141 274.248 69.039L279.753 59.6665H280.299V68.3331C280.299 68.7775 280.443 69.1566 280.729 69.4703C281.015 69.7579 281.367 69.9017 281.783 69.9017H284.516C284.933 69.9017 285.284 69.7579 285.57 69.4703C285.857 69.1566 286 68.7775 286 68.3331V44.6078C286 43.9542 285.779 43.4052 285.336 42.9608C284.946 42.4902 284.425 42.2549 283.774 42.2549H277.332C274.963 42.2549 272.959 43.1177 271.319 44.8431C269.706 46.5163 268.899 48.5555 268.899 50.9607C268.899 52.6862 269.354 54.2679 270.265 55.7058C271.15 57.1437 272.348 58.2025 273.857 58.8822L268.625 67.4704C268.469 67.7318 268.391 68.0194 268.391 68.3331Z" fill="white"/>
</g>
<defs>
<filter id="filter0_dd_1033_6139" x="113.659" y="42.0588" width="174.341" height="29.8821" filterUnits="userSpaceOnUse" color-interpolation-filters="sRGB">
<feFlood flood-opacity="0" result="BackgroundImageFix"/>
<feColorMatrix in="SourceAlpha" type="matrix" values="0 0 0 0 0 0 0 0 0 0 0 0 0 0 0 0 0 0 127 0" result="hardAlpha"/>
<feOffset dx="2" dy="2"/>
<feColorMatrix type="matrix" values="0 0 0 0 1 0 0 0 0 1 0 0 0 0 1 0 0 0 1 0"/>
<feBlend mode="normal" in2="BackgroundImageFix" result="effect1_dropShadow_1033_6139"/>
<feColorMatrix in="SourceAlpha" type="matrix" values="0 0 0 0 0 0 0 0 0 0 0 0 0 0 0 0 0 0 127 0" result="hardAlpha"/>
<feOffset dx="1" dy="1"/>
<feColorMatrix type="matrix" values="0 0 0 0 1 0 0 0 0 0.827451 0 0 0 0 0.141176 0 0 0 1 0"/>
<feBlend mode="normal" in2="effect1_dropShadow_1033_6139" result="effect2_dropShadow_1033_6139"/>
<feBlend mode="normal" in="SourceGraphic" in2="effect2_dropShadow_1033_6139" result="shape"/>
</filter>
</defs>
</svg>
